<svg xmlns="http://www.w3.org/2000/svg" width="43.031" height="36" viewBox="0 0 43.031 36">
  <metadata><?xpacket begin="﻿" id="W5M0MpCehiHzreSzNTczkc9d"?>
<x:xmpmeta xmlns:x="adobe:ns:meta/" x:xmptk="Adobe XMP Core 5.6-c142 79.160924, 2017/07/13-01:06:39        ">
   <rdf:RDF xmlns:rdf="http://www.w3.org/1999/02/22-rdf-syntax-ns#">
      <rdf:Description rdf:about=""/>
   </rdf:RDF>
</x:xmpmeta>
                                                                                                    
                                                                                                    
                                                                                                    
                                                                                                    
                                                                                                    
                                                                                                    
                                                                                                    
                                                                                                    
                                                                                                    
                                                                                                    
                                                                                                    
                                                                                                    
                                                                                                    
                                                                                                    
                                                                                                    
                                                                                                    
                                                                                                    
                                                                                                    
                                                                                                    
                                                                                                    
                           
<?xpacket end="w"?></metadata>
<defs>
    <style>
      .cls-1 {
        fill: #fff;
        fill-rule: evenodd;
      }
    </style>
  </defs>
  <path class="cls-1" d="M959.589,267.667h0m-0.374.126,1.846,2.06a1.722,1.722,0,0,0,2.408.151l2.085-1.805,2.532,1.25-0.156,2.758a1.712,1.712,0,0,0,1.6,1.8l2.757,0.191,0.9,2.668-2.071,1.842a1.7,1.7,0,0,0-.151,2.4l1.81,2.07L971.52,285.7l-2.772-.151c-0.032,0-.064,0-0.1,0a1.714,1.714,0,0,0-1.712,1.593l-0.188,2.739-2.681.9-1.85-2.061a1.722,1.722,0,0,0-2.408-.151l-2.082,1.805-2.533-1.249,0.154-2.763a1.712,1.712,0,0,0-1.6-1.8l-2.752-.189-0.9-2.668,2.068-1.843a1.7,1.7,0,0,0,.151-2.4l-1.811-2.075,1.255-2.523,2.768,0.155,0.1,0a1.714,1.714,0,0,0,1.711-1.591l0.193-2.741,2.68-.9m6.641,0.144h0m-13.917,4.578h0m7.46-6.527a1.144,1.144,0,0,0-.359.059l-3.432,1.154a1.113,1.113,0,0,0-.758.981l-0.221,3.134-3.163-.178-0.067,0a1.118,1.118,0,0,0-1,.62l-1.606,3.228a1.11,1.11,0,0,0,.155,1.227l2.074,2.377-2.362,2.1a1.108,1.108,0,0,0-.315,1.186l1.159,3.418a1.117,1.117,0,0,0,.989.755l3.144,0.216-0.177,3.161a1.11,1.11,0,0,0,.621,1.054l3.244,1.6a1.123,1.123,0,0,0,1.232-.158l2.383-2.065,2.112,2.354a1.12,1.12,0,0,0,1.193.314l3.434-1.154a1.113,1.113,0,0,0,.758-0.979l0.215-3.136,3.17,0.173h0.053a1.125,1.125,0,0,0,1.006-.617l1.609-3.237a1.114,1.114,0,0,0-.156-1.219l-2.078-2.374,2.369-2.106a1.111,1.111,0,0,0,.313-1.186l-1.159-3.418a1.118,1.118,0,0,0-.985-0.755l-3.152-.218,0.178-3.147a1.111,1.111,0,0,0-.617-1.063l-3.244-1.6a1.118,1.118,0,0,0-1.233.156l-2.386,2.066-2.109-2.353a1.119,1.119,0,0,0-.834-0.373h0Zm2.245,18.9a5.6,5.6,0,1,1,5.627-5.6A5.622,5.622,0,0,1,961.644,284.89Zm0-9.5a3.893,3.893,0,1,0,3.909,3.893A3.906,3.906,0,0,0,961.644,275.4Zm-19.962,20.823a3.893,3.893,0,1,1,3.909-3.894A3.907,3.907,0,0,1,941.682,296.218Zm0-6.076a2.183,2.183,0,1,0,2.192,2.182A2.189,2.189,0,0,0,941.682,290.142Zm-1.344-5.822h0m4.714,0.105h0m-5.279.085,1.135,1.267a1.723,1.723,0,0,0,2.409.151l1.279-1.107,1.283,0.633-0.1,1.7a1.713,1.713,0,0,0,1.6,1.8l1.692,0.117,0.458,1.353-1.275,1.134a1.7,1.7,0,0,0-.151,2.4l1.111,1.27-0.636,1.28-1.706-.093-0.1,0A1.715,1.715,0,0,0,945.064,298l-0.115,1.68-1.359.457-1.138-1.269a1.722,1.722,0,0,0-2.408-.151l-1.278,1.108-1.283-.633,0.094-1.7a1.712,1.712,0,0,0-1.6-1.8l-1.688-.116-0.459-1.353,1.273-1.134a1.7,1.7,0,0,0,.151-2.4l-1.112-1.274,0.637-1.279,1.7,0.1,0.1,0a1.715,1.715,0,0,0,1.712-1.591l0.118-1.682,1.359-.457m-4.725,3.1h0m5-4.952a0.843,0.843,0,0,0-.261.042l-2.5.839a0.811,0.811,0,0,0-.551.714l-0.16,2.278-2.3-.13h-0.049a0.812,0.812,0,0,0-.725.45l-1.168,2.347a0.809,0.809,0,0,0,.113.892l1.508,1.728-1.718,1.53a0.808,0.808,0,0,0-.228.862l0.842,2.485a0.814,0.814,0,0,0,.719.549l2.286,0.157-0.129,2.3a0.809,0.809,0,0,0,.451.766l2.359,1.163a0.809,0.809,0,0,0,.361.084,0.818,0.818,0,0,0,.535-0.2l1.732-1.5,1.535,1.712a0.815,0.815,0,0,0,.607.27,0.832,0.832,0,0,0,.26-0.042l2.5-.839a0.811,0.811,0,0,0,.551-0.712l0.156-2.28,2.3,0.126h0.039a0.816,0.816,0,0,0,.731-0.449l1.169-2.353a0.807,0.807,0,0,0-.113-0.886l-1.51-1.726,1.722-1.531a0.807,0.807,0,0,0,.227-0.862l-0.842-2.484a0.81,0.81,0,0,0-.716-0.549l-2.291-.159,0.129-2.287a0.81,0.81,0,0,0-.449-0.773l-2.358-1.164a0.8,0.8,0,0,0-.363-0.086,0.813,0.813,0,0,0-.533.2l-1.734,1.5-1.534-1.71a0.808,0.808,0,0,0-.606-0.271h0Z" transform="translate(-931.969 -266)"/>
</svg>
