<svg xmlns="http://www.w3.org/2000/svg" width="34" height="36" viewBox="0 0 34 36">
  <metadata><?xpacket begin="﻿" id="W5M0MpCehiHzreSzNTczkc9d"?>
<x:xmpmeta xmlns:x="adobe:ns:meta/" x:xmptk="Adobe XMP Core 5.6-c142 79.160924, 2017/07/13-01:06:39        ">
   <rdf:RDF xmlns:rdf="http://www.w3.org/1999/02/22-rdf-syntax-ns#">
      <rdf:Description rdf:about=""/>
   </rdf:RDF>
</x:xmpmeta>
                                                                                                    
                                                                                                    
                                                                                                    
                                                                                                    
                                                                                                    
                                                                                                    
                                                                                                    
                                                                                                    
                                                                                                    
                                                                                                    
                                                                                                    
                                                                                                    
                                                                                                    
                                                                                                    
                                                                                                    
                                                                                                    
                                                                                                    
                                                                                                    
                                                                                                    
                                                                                                    
                           
<?xpacket end="w"?></metadata>
<defs>
    <style>
      .cls-1 {
        fill: #fff;
        fill-rule: evenodd;
      }
    </style>
  </defs>
  <path id="Shape_6_copy" data-name="Shape 6 copy" class="cls-1" d="M999.489,616H981.532c-2.5,0-4.532-1.033-4.532-3.532V581h2v31.468c0,1.4,1.136,1.532,2.532,1.532h16.979l4.489-5.343V581h2v28.343ZM1002,582H975a1,1,0,0,1,0-2h27A1,1,0,0,1,1002,582Zm-4,7H984a1,1,0,0,1,0-2h14A1,1,0,0,1,998,589Zm0,6H984a1,1,0,0,1,0-2h14A1,1,0,0,1,998,595Zm0,6H984a1,1,0,0,1,0-2h14A1,1,0,0,1,998,601Zm9-19h-6a1,1,0,0,1,0-2h6A1,1,0,0,1,1007,582Zm-9.522,33.978c0.7-.726,1.542-1.264,2.243-1.978H998v-3.656c0-.742-0.4-0.344.344-0.344H1003l-2,1.255c0.52-1.089,3.7-1.908,3.19-3.255h-5.846c-1.844,0-2.344.5-2.344,2.344V616h1.463A0.17,0.17,0,0,1,997.478,615.978Z" transform="translate(-974 -580)"/>
</svg>
