<svg xmlns="http://www.w3.org/2000/svg" width="59" height="50" viewBox="0 0 59 50">
  <metadata><?xpacket begin="﻿" id="W5M0MpCehiHzreSzNTczkc9d"?>
<x:xmpmeta xmlns:x="adobe:ns:meta/" x:xmptk="Adobe XMP Core 5.6-c142 79.160924, 2017/07/13-01:06:39        ">
   <rdf:RDF xmlns:rdf="http://www.w3.org/1999/02/22-rdf-syntax-ns#">
      <rdf:Description rdf:about=""/>
   </rdf:RDF>
</x:xmpmeta>
                                                                                                    
                                                                                                    
                                                                                                    
                                                                                                    
                                                                                                    
                                                                                                    
                                                                                                    
                                                                                                    
                                                                                                    
                                                                                                    
                                                                                                    
                                                                                                    
                                                                                                    
                                                                                                    
                                                                                                    
                                                                                                    
                                                                                                    
                                                                                                    
                                                                                                    
                                                                                                    
                           
<?xpacket end="w"?></metadata>
<defs>
    <style>
      .cls-1 {
        fill: #fff;
        fill-rule: evenodd;
      }
    </style>
  </defs>
  <path class="cls-1" d="M1087.72,424.248a1.009,1.009,0,0,1-.83-0.435,0.993,0.993,0,0,1-.07-1,12.059,12.059,0,0,0,1.39-6.779,6.36,6.36,0,0,1-6.21-6.354V386.355a6.361,6.361,0,0,1,6.35-6.356h33.3a6.361,6.361,0,0,1,6.35,6.356v23.326a6.361,6.361,0,0,1-6.35,6.356H1098.7c-2.47,5.385-8.31,8-10.9,8.208C1087.77,424.247,1087.75,424.248,1087.72,424.248ZM1088.35,382a4.356,4.356,0,0,0-4.35,4.354v23.326a4.356,4.356,0,0,0,4.35,4.354l0.07,0h0.01a1.871,1.871,0,0,1,1.74,1.571,12.5,12.5,0,0,1-.76,6.192,13.26,13.26,0,0,0,7.5-6.665,1.869,1.869,0,0,1,1.7-1.1h23.04a4.356,4.356,0,0,0,4.35-4.354V386.355a4.356,4.356,0,0,0-4.35-4.354h-33.3Zm-0.03,34.036h0ZM1136,430c-0.03,0-.05,0-0.08,0a11.294,11.294,0,0,1-8.05-5.948h-19.45a5.428,5.428,0,0,1-5.42-5.427v-0.58h2v0.58a3.423,3.423,0,0,0,3.42,3.425h19.7c0.03,0,.05,0,0.08,0a1.631,1.631,0,0,1,1.39.958,9.169,9.169,0,0,0,4.74,4.473,8.9,8.9,0,0,1-.37-4.063,1.616,1.616,0,0,1,1.53-1.369,3.447,3.447,0,0,0,3.51-3.427V399.44a3.423,3.423,0,0,0-3.42-3.424H1130v-2h5.58a5.428,5.428,0,0,1,5.42,5.426v19.179a5.428,5.428,0,0,1-5.11,5.418,8.7,8.7,0,0,0,1.01,4.525A1,1,0,0,1,1136,430Zm-0.07-6.27v0Z" transform="translate(-1082 -380)"/>
</svg>
