<svg xmlns="http://www.w3.org/2000/svg" width="43" height="32" viewBox="0 0 43 32">
  <metadata><?xpacket begin="﻿" id="W5M0MpCehiHzreSzNTczkc9d"?>
<x:xmpmeta xmlns:x="adobe:ns:meta/" x:xmptk="Adobe XMP Core 5.6-c142 79.160924, 2017/07/13-01:06:39        ">
   <rdf:RDF xmlns:rdf="http://www.w3.org/1999/02/22-rdf-syntax-ns#">
      <rdf:Description rdf:about=""/>
   </rdf:RDF>
</x:xmpmeta>
                                                                                                    
                                                                                                    
                                                                                                    
                                                                                                    
                                                                                                    
                                                                                                    
                                                                                                    
                                                                                                    
                                                                                                    
                                                                                                    
                                                                                                    
                                                                                                    
                                                                                                    
                                                                                                    
                                                                                                    
                                                                                                    
                                                                                                    
                                                                                                    
                                                                                                    
                                                                                                    
                           
<?xpacket end="w"?></metadata>
<defs>
    <style>
      .cls-1 {
        fill: #fff;
        fill-rule: evenodd;
      }
    </style>
  </defs>
  <path class="cls-1" d="M663,706.508a6.019,6.019,0,1,1,6-6.019A6.016,6.016,0,0,1,663,706.508Zm0-10.031a4.012,4.012,0,1,0,4,4.012A4.01,4.01,0,0,0,663,696.477Zm15,10.031a6.019,6.019,0,1,1,6-6.019A6.016,6.016,0,0,1,678,706.508Zm0-10.031a4.012,4.012,0,1,0,4,4.012A4.01,4.01,0,0,0,678,696.477Zm0,10.031H663.735a1,1,0,0,1,0-2.007H678A1,1,0,0,1,678,706.508Zm-7.5,10.484c-5.62,0-11.24-.261-16.821-0.781A5.145,5.145,0,0,1,649,711.06V690.921a5.145,5.145,0,0,1,4.679-5.151,181.766,181.766,0,0,1,33.642,0A5.145,5.145,0,0,1,692,690.921V711.06a5.145,5.145,0,0,1-4.679,5.151h0C681.74,716.731,676.12,716.992,670.5,716.992Zm16.728-1.78h0ZM670.5,687c-5.559,0-11.116.258-16.636,0.773A3.147,3.147,0,0,0,651,690.921V711.06a3.147,3.147,0,0,0,2.864,3.152,179.343,179.343,0,0,0,33.272,0h0A3.147,3.147,0,0,0,690,711.06V690.921a3.147,3.147,0,0,0-2.864-3.152C681.617,687.254,676.058,687,670.5,687Z" transform="translate(-649 -685)"/>
</svg>
